<?xml version="1.0" encoding="UTF-8"?>
<svg width="32px" height="35px" viewBox="0 0 32 35" version="1.1" xmlns="http://www.w3.org/2000/svg" xmlns:xlink="http://www.w3.org/1999/xlink">
    <!-- Generator: Sketch 51.2 (57519) - http://www.bohemiancoding.com/sketch -->
    <title>Stroke 2</title>
    <desc>Created with Sketch.</desc>
    <defs></defs>
    <g id="Symbols" stroke="none" stroke-width="1" fill="none" fill-rule="evenodd">
        <g id="tab-bar/browse-(with-text)" transform="translate(-613.000000, -20.000000)" fill="#000000" fill-rule="nonzero">
            <path d="M636.836598,37.2172642 C638.557931,37.7433688 640.141484,38.6854967 641.437176,39.9811892 C643.50884,42.0528527 644.676639,44.8604136 644.685283,47.7948432 L644.685283,54.0757238 L613,54.0757238 L613,52.5757238 L613.000007,47.7904211 C613.008645,44.8604136 614.176444,42.0528527 616.248107,39.9811892 C617.5438,38.6854967 619.127353,37.7433688 620.848685,37.2172642 C619.307566,35.3947712 618.378491,33.0380562 618.378491,30.4641511 C618.378491,24.6845245 623.063015,20 628.842642,20 C634.622268,20 639.306793,24.6845245 639.306793,30.4641511 C639.306793,33.0380562 638.377717,35.3947712 636.836598,37.2172642 Z M633.702767,39.7337543 C632.250563,40.4966538 630.597056,40.9283022 628.842642,40.9283022 C627.088228,40.9283022 625.43472,40.4966538 623.982517,39.7337543 C621.875378,39.7617329 619.860923,40.6110136 618.369428,42.1025096 C616.858202,43.6137349 616.006295,45.6618455 616,47.7948432 L616,51.0757238 L641.685286,51.0757238 L641.68529,47.7992654 C641.678989,45.6618455 640.827081,43.6137349 639.315856,42.1025096 C637.82436,40.6110136 635.809906,39.7617329 633.702767,39.7337543 Z M636.306793,30.4641511 C636.306793,26.3413788 632.965414,23 628.842642,23 C624.719869,23 621.378491,26.3413788 621.378491,30.4641511 C621.378491,34.5869234 624.719869,37.9283022 628.842642,37.9283022 C632.965414,37.9283022 636.306793,34.5869234 636.306793,30.4641511 Z" id="Stroke-2"></path>
        </g>
    </g>
</svg>