<?xml version="1.0" encoding="UTF-8"?>
<svg width="56px" height="34px" viewBox="0 0 56 34" version="1.1" xmlns="http://www.w3.org/2000/svg" xmlns:xlink="http://www.w3.org/1999/xlink">
    <!-- Generator: Sketch 51.2 (57519) - http://www.bohemiancoding.com/sketch -->
    <title>Combined Shape</title>
    <desc>Created with Sketch.</desc>
    <defs></defs>
    <g id="Symbols" stroke="none" stroke-width="1" fill="none" fill-rule="evenodd">
        <g id="tab-bar/browse-(with-text)" transform="translate(-347.000000, -20.000000)" fill="#000000" fill-rule="nonzero">
            <path d="M385.000012,51.000052 L385.000012,47.0000256 C385.000012,46.4477408 385.447727,46.0000256 386.000012,46.0000256 L387.000012,46.0000256 C387.552296,46.0000256 388.000012,46.4477408 388.000012,47.0000256 L388.000012,51.000052 L400.000014,51.000052 L400.000012,44.379906 C397.297389,43.2475743 396.000012,40.5622491 396.000012,37.0000256 C396.000012,33.4378031 397.297389,30.7524785 400.000008,29.6201468 L400.000014,23 L388.000012,23 L388.000012,27.0000256 C388.000012,27.5523103 387.552296,28.0000256 387.000012,28.0000256 L386.000012,28.0000256 C385.447727,28.0000256 385.000012,27.5523103 385.000012,27.0000256 L385.000012,23 L365.000012,23 L365.000012,27.0000256 C365.000012,27.5523103 364.552296,28.0000256 364.000012,28.0000256 L363.000012,28.0000256 C362.447727,28.0000256 362.000012,27.5523103 362.000012,27.0000256 L362.000012,23 L350.000001,23 L350.000009,29.6201444 C352.702634,30.7524756 354.000012,33.4378012 354.000012,37.0000256 C354.000012,40.5622494 352.702633,43.2475748 350.000012,44.3799057 L350.000001,51.000052 L362.000012,51.000052 L362.000012,47.0000256 C362.000012,46.4477408 362.447727,46.0000256 363.000012,46.0000256 L364.000012,46.0000256 C364.552296,46.0000256 365.000012,46.4477408 365.000012,47.0000256 L365.000012,51.000052 L385.000012,51.000052 Z M347.00001,30.3253971 L347,22.0000019 C346.999999,20.8954324 347.895429,20.0000011 348.999998,20 L401.000015,20.0000015 C402.104584,20.0000015 403.000015,20.895432 403.000015,22.0000015 L403.000008,30.325394 C403.000007,31.2129015 402.415128,31.9942547 401.563585,32.244343 C399.854536,32.7462708 399.000012,34.3314983 399.000012,37.0000256 C399.000012,39.6685459 399.854532,41.2537721 401.563572,41.7557042 C402.415129,42.0057773 403.000012,42.7871391 403.000012,43.6746555 L403.000015,52.0000501 C403.000015,53.1046196 402.104585,54.0000503 401.000015,54.0000505 L349,54.000052 C347.895431,54.000052 347,53.1046215 347,52.000052 L347.000013,43.6746573 C347.000014,42.7871496 347.584894,42.0057965 348.436437,41.7557085 C350.145487,41.253781 351.000012,39.6685534 351.000012,37.0000256 C351.000012,34.3315053 350.145492,32.746279 348.436452,32.2443469 C347.584894,31.9942751 347.000011,31.2129136 347.00001,30.3253971 Z M364.000012,41.0000256 L363.000012,41.0000256 C362.447727,41.0000256 362.000012,40.5523103 362.000012,40.0000256 L362.000012,34.0000256 C362.000012,33.4477408 362.447727,33.0000256 363.000012,33.0000256 L364.000012,33.0000256 C364.552296,33.0000256 365.000012,33.4477408 365.000012,34.0000256 L365.000012,40.0000256 C365.000012,40.5523103 364.552296,41.0000256 364.000012,41.0000256 Z M387.000012,41.0000256 L386.000012,41.0000256 C385.447727,41.0000256 385.000012,40.5523103 385.000012,40.0000256 L385.000012,34.0000256 C385.000012,33.4477408 385.447727,33.0000256 386.000012,33.0000256 L387.000012,33.0000256 C387.552296,33.0000256 388.000012,33.4477408 388.000012,34.0000256 L388.000012,40.0000256 C388.000012,40.5523103 387.552296,41.0000256 387.000012,41.0000256 Z" id="Combined-Shape"></path>
        </g>
    </g>
</svg>