<?xml version="1.0" encoding="UTF-8"?>
<svg width="49px" height="44px" viewBox="0 0 49 44" version="1.1" xmlns="http://www.w3.org/2000/svg" xmlns:xlink="http://www.w3.org/1999/xlink">
    <!-- Generator: Sketch 51.2 (57519) - http://www.bohemiancoding.com/sketch -->
    <title>Path</title>
    <desc>Created with Sketch.</desc>
    <defs></defs>
    <g id="Symbols" stroke="none" stroke-width="1" fill="none" fill-rule="evenodd">
        <g id="tab-bar/my-tickets-(with-text)" transform="translate(-105.000000, -15.000000)" fill="#000000" fill-rule="nonzero">
            <path d="M109.240994,18 C108.61456,18 108,18.723002 108,19.7246535 L108,53.583515 C108,54.5851665 108.61456,55.3081685 109.240994,55.3081685 L148.985406,55.3081685 C149.61184,55.3081685 150.2264,54.5851665 150.2264,53.583515 L150.2264,19.7246535 C150.2264,18.723002 149.61184,18 148.985406,18 L109.240994,18 Z M109.240994,15 L148.985406,15 C151.386591,15 153.2264,17.1644511 153.2264,19.7246535 L153.2264,53.583515 C153.2264,56.1437174 151.386591,58.3081685 148.985406,58.3081685 L109.240994,58.3081685 C106.839809,58.3081685 105,56.1437174 105,53.583515 L105,19.7246535 C105,17.1644511 106.839809,15 109.240994,15 Z M116,45.5585176 L119.843517,45.5585176 L119.843517,42.3081165 L116,42.3081165 L116,45.5585176 Z M114.914759,39.3081165 L120.928758,39.3081165 C122.05473,39.3081165 122.843517,40.2590759 122.843517,41.3081486 L122.843517,46.5584855 C122.843517,47.6075582 122.05473,48.5585176 120.928758,48.5585176 L114.914759,48.5585176 C113.788787,48.5585176 113,47.6075582 113,46.5584855 L113,41.3081486 C113,40.2590759 113.788787,39.3081165 114.914759,39.3081165 Z M143.264963,26.3081165 L115.42032,26.3081165 C115.27101,26.3081165 115.128577,26.316648 115,26.3314812 L115,31.8910389 C115.128577,31.9058721 115.27101,31.9144036 115.42032,31.9144036 L143.264963,31.9144036 C143.414274,31.9144036 143.556706,31.9058721 143.685283,31.8910389 L143.685283,26.3314812 C143.556706,26.316648 143.414274,26.3081165 143.264963,26.3081165 Z M115.42032,23.3081165 L143.264963,23.3081165 C145.120507,23.3081165 146.685283,23.8691444 146.685283,25.4966194 L146.685283,32.7259007 C146.685283,34.3533757 145.120507,34.9144036 143.264963,34.9144036 L115.42032,34.9144036 C113.564776,34.9144036 112,34.3533757 112,32.7259007 L112,25.4966194 C112,23.8691444 113.564776,23.3081165 115.42032,23.3081165 Z M127.519721,40.0585176 L145.500015,40.0585176 C146.052299,40.0585176 146.500015,40.5062329 146.500015,41.0585176 L146.500015,42.0585176 C146.500015,42.6108024 146.052299,43.0585176 145.500015,43.0585176 L127.519721,43.0585176 C126.967436,43.0585176 126.519721,42.6108024 126.519721,42.0585176 L126.519721,41.0585176 C126.519721,40.5062329 126.967436,40.0585176 127.519721,40.0585176 Z M127.519721,45.6648048 L141.493624,45.6648048 C142.045908,45.6648048 142.493624,46.11252 142.493624,46.6648048 L142.493624,47.6648048 C142.493624,48.2170895 142.045908,48.6648048 141.493624,48.6648048 L127.519721,48.6648048 C126.967436,48.6648048 126.519721,48.2170895 126.519721,47.6648048 L126.519721,46.6648048 C126.519721,46.11252 126.967436,45.6648048 127.519721,45.6648048 Z" id="Path"></path>
        </g>
    </g>
</svg>